PathFileType	4	(X/Y/Z)	/Users/niels/Desktop/University/Third Semester/Perception and Action/Exam/Gymnastics Motion Tracking/Code for Gym Tracking/Analyzed Data/Webcam_Backflip/id4_3_trajectory_Sports2D/id4_3_trajectory_Sports2D_px_person00.trc
DataRate	CameraRate	NumFrames	NumMarkers	Units	OrigDataRate	OrigDataStartFrame	OrigNumFrames
29.714285714285715	29.714285714285715	9	22	m	29.714285714285715	13	105
Frame#	Time	Hip			RHip			RKnee			RAnkle			RBigToe			RSmallToe			RHeel			LHip			LKnee			LAnkle			LBigToe			LSmallToe			LHeel			Neck			Head			Nose			RShoulder			RElbow			RWrist			LShoulder			LElbow			LWrist		
		X1	Y1	Z1	X2	Y2	Z2	X3	Y3	Z3	X4	Y4	Z4	X5	Y5	Z5	X6	Y6	Z6	X7	Y7	Z7	X8	Y8	Z8	X9	Y9	Z9	X10	Y10	Z10	X11	Y11	Z11	X12	Y12	Z12	X13	Y13	Z13	X14	Y14	Z14	X15	Y15	Z15	X16	Y16	Z16	X17	Y17	Z17	X18	Y18	Z18	X19	Y19	Z19	X20	Y20	Z20	X21	Y21	Z21	X22	Y22	Z22
13	0.4375	0.9352011515392562	-0.6770515020283924	0.0	0.9320707281959159	-0.6765775495299479	0.0	0.9520179908050069	-0.7895817966286336	0.0	0.9207196902613446	-0.9112181569585067	0.0	0.9538637620868371	-0.9335178159039219	0.0	0.9442796684692398	-0.9372586945049839	0.0	0.9127329131587164	-0.9260981150066245	0.0	0.9408021373750433	-0.6754457751639078	0.0	0.9531501023517689	-0.7852353320013878	0.0	0.9276239076325706	-0.900062961141743	0.0	0.9679986179770194	-0.9205341166917895	0.0	0.9621922150197899	-0.9163773932432744	0.0	0.915904456909058	-0.9167066289611707	0.0	0.957106905307382	-0.4976763696616092	0.0	0.9910535135833946	-0.4192033755031386	0.0	0.9997496386289824	-0.46681016805226705	0.0	0.9397378936280322	-0.522366374489895	0.0	0.8967059382276044	-0.5925694021035998	0.0	0.8706221141167647	-0.6717387605801275	0.0	0.9478154785883737	-0.5203523674261601	0.0	0.9096101056593809	-0.59234403847862	0.0	0.8792585663565756	-0.6618698896788529	0.0
14	0.47115384615384615	0.935185621393188	-0.6682437356560674	0.0	0.9312867164443989	-0.6670943721550271	0.0	0.9466949940579642	-0.7814182215314531	0.0	0.9194851200203574	-0.9045425222532846	0.0	0.9529759475259322	-0.9244152909525463	0.0	0.9435627118191121	-0.9286208757897666	0.0	0.9114283127732613	-0.9196409335641359	0.0	0.9422385036349882	-0.6663453648692663	0.0	0.9481650141745848	-0.7774332885734635	0.0	0.9259782276735737	-0.8930285897445389	0.0	0.9654763003146801	-0.9128086344884359	0.0	0.9612156310824358	-0.9092051689676041	0.0	0.9147836756348171	-0.9103796928757819	0.0	0.9572777204090324	-0.4895864241081248	0.0	0.9918210729353365	-0.4103131683510117	0.0	1.0002019052920172	-0.4587699426679262	0.0	0.9394125450794331	-0.5117367120070453	0.0	0.8899828268502659	-0.5755844877271679	0.0	0.8545630119816747	-0.6503670549412549	0.0	0.9492283910302656	-0.511155033788122	0.0	0.9025578223232515	-0.5768335136215956	0.0	0.8638134175170301	-0.6430009597016483	0.0
15	0.5048076923076923	0.9345409912336221	-0.6550053968400643	0.0	0.9302803555737889	-0.6530854633508634	0.0	0.9425626469855805	-0.7689457566707709	0.0	0.9184512856695739	-0.893723356303286	0.0	0.9543521047640044	-0.911543862994337	0.0	0.9447557683480244	-0.9159989071739866	0.0	0.9098501239240251	-0.9090910092913449	0.0	0.9426987743934655	-0.6526279814937446	0.0	0.9439808283246329	-0.7654203597630589	0.0	0.9248385941542406	-0.8819460794794672	0.0	0.9641655755656078	-0.9012804959519323	0.0	0.9613041234744903	-0.8979896252535552	0.0	0.9139935325944389	-0.8998132154387207	0.0	0.9572243654197937	-0.4775956560298473	0.0	0.9936019106247655	-0.39785633072125975	0.0	1.0007868972832934	-0.4474046694044536	0.0	0.9395318549320887	-0.49687365709087383	0.0	0.8854279480631928	-0.5546770681125107	0.0	0.8428966259374994	-0.6248189719919124	0.0	0.9499141432912652	-0.497818335745337	0.0	0.8968287775017691	-0.5574123714423508	0.0	0.8541152037614449	-0.6198239794987049	0.0
16	0.5384615384615384	0.9335574795265383	-0.6387315366558665	0.0	0.9292822373111831	-0.6361133246079639	0.0	0.939891746305697	-0.753508219144506	0.0	0.9179354598890895	-0.8799828101640004	0.0	0.9576637080781323	-0.8965568400690106	0.0	0.947639727193519	-0.9009472607014329	0.0	0.9085710047828043	-0.8955971991755252	0.0	0.9422943059451312	-0.6358293647187079	0.0	0.9409962893272086	-0.7505811018575498	0.0	0.9243593169327761	-0.8682682856530305	0.0	0.9643434192094663	-0.8874748783087338	0.0	0.9624604972143567	-0.8841752319075581	0.0	0.9136473021967897	-0.8863276135402683	0.0	0.9569790199537511	-0.46277142376675945	0.0	0.9963942555116778	-0.38302221079882715	0.0	1.0015665798611706	-0.4337225579436108	0.0	0.9398061324154683	-0.47910860524396637	0.0	0.8821726222648956	-0.5312710182321914	0.0	0.834190105346223	-0.5966992648650772	0.0	0.9501637222607666	-0.4815895974619477	0.0	0.8927273699997966	-0.5356396814435274	0.0	0.8495265663430841	-0.5939369046288788	0.0
17	0.5721153846153846	0.9323862239531074	-0.6209399064711492	0.0	0.9283864034592487	-0.6177390767256009	0.0	0.938674500098105	-0.7365689101101683	0.0	0.9182589276271311	-0.8646512325013005	0.0	0.9621568947057829	-0.8811600826646325	0.0	0.9516713393253351	-0.8851648952858275	0.0	0.9081268789067962	-0.8805077706601188	0.0	0.9411069530749206	-0.6175048863975702	0.0	0.9392632540984437	-0.7343454464009251	0.0	0.9245308723587006	-0.8534260422316094	0.0	0.9658220622755519	-0.872946269222159	0.0	0.9643194354764423	-0.8693402409875988	0.0	0.9137480170124371	-0.8713485073595201	0.0	0.9565947429110181	-0.4463943618257058	0.0	0.9999363148909457	-0.3671178604047604	0.0	1.0025469972169676	-0.41877799055918535	0.0	0.9399580816505368	-0.4599561385062456	0.0	0.8793420139354203	-0.5067268558042392	0.0	0.8270247853253306	-0.567036111129222	0.0	0.9501472781486202	-0.4638083791437797	0.0	0.8902023108633164	-0.5127694599089353	0.0	0.8486090456110085	-0.5665350121603848	0.0
18	0.6057692307692307	0.931078956206308	-0.6031869935438875	0.0	0.9276743179767372	-0.5994436152465218	0.0	0.9386592073168993	-0.7195975662287738	0.0	0.9196250415238567	-0.8491318436470804	0.0	0.9668975896890952	-0.8670238630551345	0.0	0.9560760924124978	-0.8704327153635852	0.0	0.9088585898884908	-0.8653013231874389	0.0	0.9392116878599108	-0.5991731671451588	0.0	0.9385220476721412	-0.7181076107927459	0.0	0.9252506476450468	-0.8388217915372775	0.0	0.9679917567618654	-0.8592482840577391	0.0	0.9662237327645209	-0.8551744634470637	0.0	0.9142573161314037	-0.8563503435736298	0.0	0.9560978206298653	-0.42979089679674953	0.0	1.0038079560017696	-0.3514457913468371	0.0	1.003661522818216	-0.40366592827587083	0.0	0.9398852437783604	-0.44094118556141143	0.0	0.8762769294562249	-0.4823331814022369	0.0	0.8203391002721646	-0.5365745872566315	0.0	0.9497139920782934	-0.4457350937580691	0.0	0.8886989267810342	-0.48972701888244813	0.0	0.8494548507889097	-0.5385398994190382	0.0
19	0.6394230769230769	0.9296606207929824	-0.5869527914456596	0.0	0.9272116153343768	-0.5826001227768601	0.0	0.9394871117038341	-0.7039762685082825	0.0	0.9220253784252891	-0.8347982995276729	0.0	0.9711589415507953	-0.8554869377966173	0.0	0.960162757804046	-0.858289641810998	0.0	0.9108753305169547	-0.851437168300894	0.0	0.9367234670579278	-0.5822755357984921	0.0	0.9384136385306898	-0.7031381293242822	0.0	0.9264759331234601	-0.8256600393994582	0.0	0.9702452471771986	-0.8476459466384434	0.0	0.9676559976153158	-0.8431184593210874	0.0	0.9152234160830526	-0.842635965091871	0.0	0.9554907826175	-0.4142061391985927	0.0	1.0075828274345298	-0.3371780251546325	0.0	1.004818743802401	-0.38949180275660783	0.0	0.9397414323996823	-0.42345108621834093	0.0	0.8726976285311202	-0.4592613625904062	0.0	0.8135447280012537	-0.5061402483017227	0.0	0.9485771876247064	-0.4285180261034781	0.0	0.8875343492753613	-0.4673766145398918	0.0	0.8503781794009679	-0.5108584752401891	0.0
20	0.673076923076923	0.9281635089109863	-0.5734661143631599	0.0	0.9269548262372591	-0.5683856976096279	0.0	0.940884660867768	-0.6908352888866905	0.0	0.9252107282570712	-0.8227156435703427	0.0	0.9746200254377628	-0.8472237547939292	0.0	0.9635589254674266	-0.8496029099847108	0.0	0.9140338588687956	-0.8400149292492722	0.0	0.9338539960999577	-0.5680326402295195	0.0	0.9387073866103318	-0.690447499444789	0.0	0.9282004835810042	-0.8147428929389088	0.0	0.9722499654974992	-0.8388409796000174	0.0	0.9684754451551993	-0.8339892175907747	0.0	0.9166931544220506	-0.8310836872452786	0.0	0.9548143182362407	-0.4007263134857473	0.0	1.010954886938042	-0.32527958610952173	0.0	1.005950802267676	-0.3772802759755247	0.0	0.9398532362531907	-0.4086107924134905	0.0	0.868775099845633	-0.43850878452062825	0.0	0.8065579934413307	-0.4770060872377398	0.0	0.9466480859855725	-0.41321904115589647	0.0	0.8861547378716151	-0.4467522496502921	0.0	0.8500832173517356	-0.48463948104610727	0.0
21	0.7067307692307692	0.9266251295481367	-0.5635216770602539	0.0	0.9267175721960855	-0.5576362371877707	0.0	0.9427747631839307	-0.6808795432589098	0.0	0.9286906469958595	-0.8134285411748634	0.0	0.9772083505846791	-0.8421495148468195	0.0	0.9661263504072971	-0.8443775594642453	0.0	0.9178298675507623	-0.8314954911156852	0.0	0.9309519533596814	-0.5572681032704543	0.0	0.9394433551175291	-0.6806752159857505	0.0	0.93030518373612	-0.8064089331923338	0.0	0.9739409410245771	-0.8328857044999225	0.0	0.9688344751044967	-0.827871321719843	0.0	0.9185296933945418	-0.8220835963148424	0.0	0.9541862830041828	-0.39021968366012394	0.0	1.0137763619144147	-0.31647084101727413	0.0	1.0070278570869615	-0.3678590204902367	0.0	0.9404672590439429	-0.39724086741007636	0.0	0.8649974345827549	-0.4210348486496752	0.0	0.7997374460420542	-0.45114982578169066	0.0	0.9442344584990605	-0.4008214731862632	0.0	0.8841228774613467	-0.42909972314421546	0.0	0.8474068188391082	-0.4614650957268431	0.0
